<?xml version="1.0" encoding="UTF-8" standalone="no"?>
<!-- Created with Inkscape (http://www.inkscape.org/) -->

<svg
   width="210mm"
   height="297mm"
   viewBox="0 0 210 297"
   version="1.1"
   id="svg1"
   inkscape:version="1.4.2 (ebf0e940d0, 2025-05-08)"
   sodipodi:docname="packaging-cardboard.svg"
   xmlns:inkscape="http://www.inkscape.org/namespaces/inkscape"
   xmlns:sodipodi="http://sodipodi.sourceforge.net/DTD/sodipodi-0.dtd"
   xmlns="http://www.w3.org/2000/svg"
   xmlns:svg="http://www.w3.org/2000/svg">
  <sodipodi:namedview
     id="namedview1"
     pagecolor="#ffffff"
     bordercolor="#000000"
     borderopacity="0.25"
     inkscape:showpageshadow="2"
     inkscape:pageopacity="0.0"
     inkscape:pagecheckerboard="0"
     inkscape:deskcolor="#d1d1d1"
     inkscape:document-units="mm"
     inkscape:zoom="1.0116647"
     inkscape:cx="146.29354"
     inkscape:cy="269.35803"
     inkscape:window-width="1878"
     inkscape:window-height="1011"
     inkscape:window-x="0"
     inkscape:window-y="0"
     inkscape:window-maximized="1"
     inkscape:current-layer="layer1" />
  <defs
     id="defs1">
    <inkscape:path-effect
       effect="fillet_chamfer"
       id="path-effect6"
       is_visible="true"
       lpeversion="1"
       nodesatellites_param="F,0,0,1,0,0,0,1 @ F,0,0,1,0,0,0,1 @ F,0,0,1,0,0,0,1 @ F,0,0,1,0,0,0,1"
       radius="0"
       unit="px"
       method="auto"
       mode="F"
       chamfer_steps="1"
       flexible="false"
       use_knot_distance="true"
       apply_no_radius="true"
       apply_with_radius="true"
       only_selected="false"
       hide_knots="false" />
  </defs>
  <g
     inkscape:label="Layer 1"
     inkscape:groupmode="layer"
     id="layer1">
    <rect
       style="fill:none;stroke:#000000;stroke-width:0.26458333;stroke-dasharray:none"
       id="rect1"
       width="140"
       height="90"
       x="24.80117"
       y="19.189768" />
    <path
       style="fill:none;stroke:#000000;stroke-width:0.264583;stroke-dasharray:none"
       id="rect2"
       width="35"
       height="39"
       x="105.31235"
       y="40.182491"
       sodipodi:type="rect" />
    <rect
       style="fill:none;stroke:#000000;stroke-width:0.289425;stroke-dasharray:none"
       id="rect3"
       width="41.399815"
       height="25.241873"
       x="33.445599"
       y="78.098381" />
    <rect
       style="fill:none;stroke:#000000;stroke-width:0.264583;stroke-dasharray:none"
       id="rect4"
       width="28"
       height="10"
       x="52.632072"
       y="57.085819" />
    <rect
       style="fill:none;stroke:#000000;stroke-width:0.264583;stroke-dasharray:none"
       id="rect4-9"
       width="15"
       height="4"
       x="80.613632"
       y="60.045387" />
    <path
       style="fill:none;stroke:#000000;stroke-width:0.264583;stroke-dasharray:none"
       d="m 74.857833,82.897373 c 0,0 8.595473,6.115709 18.560141,6.197269 9.964666,0.08156 21.821596,0.144221 29.390626,0.06863 15.13807,-0.151188 30.90463,-6.44841 30.64419,-29.322998 -0.26044,-22.874591 -12.98505,-28.930687 -29.38778,-29.268563 -16.40272,-0.337876 -47.4235,-0.654832 -67.106106,-0.892926 -9.763171,-0.118102 -22.491818,2.82243 -23.066124,15.481674 -0.287153,6.329622 10.383693,15.667534 15.845796,15.891828 1.629437,0.06691 2.807596,-0.14092 2.807596,-0.14092"
       id="path5"
       sodipodi:nodetypes="csszzsssc" />
    <path
       style="fill:none;stroke:#000000;stroke-width:0.264583;stroke-dasharray:none"
       d="m 75.272567,98.996369 c 0,0 9.511549,-4.554175 20.734715,-4.66937 11.223168,-0.115196 24.157948,-0.237466 31.004418,-0.265766 13.69293,-0.0566 30.92741,-6.466347 31.33906,-34.022887 0.41165,-27.55654 -19.11226,-33.256468 -35.05177,-33.165263 -15.93952,0.0912 -53.190882,-1.483005 -70.543196,-0.631396 -17.352314,0.851609 -22.746934,10.199959 -22.300109,20.947576 0.446824,10.747617 13.212184,17.047911 19.062394,17.060073 1.211042,0.0025 2.92361,0.427969 2.92361,0.427969"
       id="path6"
       sodipodi:nodetypes="csszzzzsc" />
  </g>
</svg>
